HIERARCHY
ROOT hip
{
  OFFSET 49.9058 82.4232 -108.241
  CHANNELS 6 Xposition Yposition Zposition Zrotation Xrotation Yrotation
  JOINT abdomen
  {
    OFFSET 0 20.6881 -0.73152
    CHANNELS 3 Zrotation Xrotation Yrotation
    JOINT chest
    {
      OFFSET 0 11.7043 -0.48768
      CHANNELS 3 Zrotation Xrotation Yrotation
      JOINT neck
      {
        OFFSET 0 22.1894 -2.19456
        CHANNELS 3 Zrotation Xrotation Yrotation
        JOINT head
        {
          OFFSET -0.24384 7.07133 1.2192
          CHANNELS 3 Zrotation Xrotation Yrotation
          JOINT leftEye
          {
            OFFSET 4.14528 8.04674 8.04672
            CHANNELS 3 Zrotation Xrotation Yrotation
            End Site
            {
              OFFSET 1 0 0
            }
          }
          JOINT rightEye
          {
            OFFSET -3.6576 8.04674 8.04672
            CHANNELS 3 Zrotation Xrotation Yrotation
            End Site
            {
              OFFSET 1 0 0
            }
          }
        }
      }
      JOINT rCollar
      {
        OFFSET -2.68224 19.2634 -4.8768
        CHANNELS 3 Zrotation Xrotation Yrotation
        JOINT rShldr
        {
          OFFSET -8.77824 -1.95073 1.46304
          CHANNELS 3 Zrotation Xrotation Yrotation
          JOINT rForeArm
          {
            OFFSET -28.1742 -1.7115 0.48768
            CHANNELS 3 Zrotation Xrotation Yrotation
            JOINT rHand
            {
              OFFSET -22.5879 0.773209 7.07136
              CHANNELS 3 Zrotation Xrotation Yrotation
              JOINT rThumb1
              {
                OFFSET -1.2192 -0.487915 3.41376
                CHANNELS 3 Zrotation Xrotation Yrotation
                JOINT rThumb2
                {
                  OFFSET -3.37035 -0.52449 3.41376
                  CHANNELS 3 Zrotation Xrotation Yrotation
                  End Site
                  {
                    OFFSET -1.78271 -1.18214 1.43049
                  }
                }
              }
              JOINT rIndex1
              {
                OFFSET -7.75947 0.938293 5.60832
                CHANNELS 3 Zrotation Xrotation Yrotation
                JOINT rIndex2
                {
                  OFFSET -2.54057 -0.884171 1.56538
                  CHANNELS 3 Zrotation Xrotation Yrotation
                  End Site
                  {
                    OFFSET -1.62519 -0.234802 1.16502
                  }
                }
              }
              JOINT rMid1
              {
                OFFSET -8.24714 1.18213 3.41376
                CHANNELS 3 Zrotation Xrotation Yrotation
                JOINT rMid2
                {
                  OFFSET -3.10165 -0.590103 1.0647
                  CHANNELS 3 Zrotation Xrotation Yrotation
                  End Site
                  {
                    OFFSET -2.48547 -0.328903 0.83742
                  }
                }
              }
              JOINT rRing1
              {
                OFFSET -8.82822 0.546677 1.51678
                CHANNELS 3 Zrotation Xrotation Yrotation
                JOINT rRing2
                {
                  OFFSET -2.60934 -0.819778 -0.0198488
                  CHANNELS 3 Zrotation Xrotation Yrotation
                  End Site
                  {
                    OFFSET -2.33842 -0.294052 0.168128
                  }
                }
              }
              JOINT rPinky1
              {
                OFFSET -8.27202 -0.0477905 -0.4584
                CHANNELS 3 Zrotation Xrotation Yrotation
                JOINT rPinky2
                {
                  OFFSET -1.82734 -0.647385 -0.700984
                  CHANNELS 3 Zrotation Xrotation Yrotation
                  End Site
                  {
                    OFFSET -1.69225 -0.51767 -0.607171
                  }
                }
              }
            }
          }
        }
      }
      JOINT lCollar
      {
        OFFSET 2.68224 19.2634 -4.8768
        CHANNELS 3 Zrotation Xrotation Yrotation
        JOINT lShldr
        {
          OFFSET 8.77824 -1.95073 1.46304
          CHANNELS 3 Zrotation Xrotation Yrotation
          JOINT lForeArm
          {
            OFFSET 28.1742 -1.7115 0.48768
            CHANNELS 3 Zrotation Xrotation Yrotation
            JOINT lHand
            {
              OFFSET 22.5879 0.773209 7.07136
              CHANNELS 3 Zrotation Xrotation Yrotation
              JOINT lThumb1
              {
                OFFSET 1.2192 -0.487915 3.41376
                CHANNELS 3 Zrotation Xrotation Yrotation
                JOINT lThumb2
                {
                  OFFSET 3.37035 -0.52449 3.41376
                  CHANNELS 3 Zrotation Xrotation Yrotation
                  End Site
                  {
                    OFFSET 1.78271 -1.18214 1.43049
                  }
                }
              }
              JOINT lIndex1
              {
                OFFSET 7.75947 0.938293 5.60832
                CHANNELS 3 Zrotation Xrotation Yrotation
                JOINT lIndex2
                {
                  OFFSET 2.54057 -0.884171 1.56538
                  CHANNELS 3 Zrotation Xrotation Yrotation
                  End Site
                  {
                    OFFSET 1.62519 -0.234802 1.16502
                  }
                }
              }
              JOINT lMid1
              {
                OFFSET 8.24714 1.18213 3.41376
                CHANNELS 3 Zrotation Xrotation Yrotation
                JOINT lMid2
                {
                  OFFSET 3.10165 -0.590103 1.0647
                  CHANNELS 3 Zrotation Xrotation Yrotation
                  End Site
                  {
                    OFFSET 2.48547 -0.328903 0.83742
                  }
                }
              }
              JOINT lRing1
              {
                OFFSET 8.82822 0.546677 1.51678
                CHANNELS 3 Zrotation Xrotation Yrotation
                JOINT lRing2
                {
                  OFFSET 2.60934 -0.819778 -0.0198488
                  CHANNELS 3 Zrotation Xrotation Yrotation
                  End Site
                  {
                    OFFSET 2.33842 -0.294052 0.168128
                  }
                }
              }
              JOINT lPinky1
              {
                OFFSET 8.27202 -0.0477905 -0.4584
                CHANNELS 3 Zrotation Xrotation Yrotation
                JOINT lPinky2
                {
                  OFFSET 1.82734 -0.647385 -0.700984
                  CHANNELS 3 Zrotation Xrotation Yrotation
                  End Site
                  {
                    OFFSET 1.69225 -0.51767 -0.607171
                  }
                }
              }
            }
          }
        }
      }
    }
  }
  JOINT rButtock
  {
    OFFSET -8.77824 4.35084 1.2192
    CHANNELS 3 Zrotation Xrotation Yrotation
    JOINT rThigh
    {
      OFFSET 0 -1.70687 -2.19456
      CHANNELS 3 Zrotation Xrotation Yrotation
      JOINT rShin
      {
        OFFSET 0 -36.8199 0.73152
        CHANNELS 3 Zrotation Xrotation Yrotation
        JOINT rFoot
        {
          OFFSET 0.73152 -45.1104 -5.12064
          CHANNELS 3 Zrotation Xrotation Yrotation
          End Site
          {
            OFFSET -1.1221 -3.69964 12.103
          }
        }
      }
    }
  }
  JOINT lButtock
  {
    OFFSET 8.77824 4.35084 1.2192
    CHANNELS 3 Zrotation Xrotation Yrotation
    JOINT lThigh
    {
      OFFSET 0 -1.70687 -2.19456
      CHANNELS 3 Zrotation Xrotation Yrotation
      JOINT lShin
      {
        OFFSET 0 -36.8199 0.73152
        CHANNELS 3 Zrotation Xrotation Yrotation
        JOINT lFoot
        {
          OFFSET -0.73152 -45.1104 -5.12064
          CHANNELS 3 Zrotation Xrotation Yrotation
          End Site
          {
            OFFSET 1.1221 -3.69964 12.103
          }
        }
      }
    }
  }
}
MOTION
Frames:	4
Frame Time:	0.00833333
45.1497 84.5501 -103.261 0.558833 -0.000781658 -0.00981816 -0.73507 -0.00369185 -0.0206965 -0.202666 -0.00499137 -0.0351144 3.1204e-015 7.95139e-016 -1.61513e-016 9.72181e-015 9.54166e-015 -5.26469e-016 -0 0 0 -0 0 0 1.83748e-015 -3.10601e-018 1.49089e-016 3.53722e-014 -3.85145e-016 -1.19271e-015 6.07983e-013 -1.80496e-013 -2.54444e-014 6.92137e-012 1.77887e-013 -3.81667e-013 1.63293e-011 1.41809e-015 -8.52389e-013 2.81865e-011 3.18055e-015 -1.46942e-012 1.63314e-011 7.95139e-016 -8.5875e-013 7.73091 5.47488 0.417314 1.63267e-011 7.95139e-016 -8.55569e-013 2.90554 0.965183 0.102902 1.63303e-011 5.96354e-016 -8.47618e-013 10.2786 0.731801 0.0259123 1.63248e-011 3.97569e-015 -8.36486e-013 2.22167 -0.733487 -0.20892 1.54197e-015 -1.74713e-018 -2.48481e-016 3.4223e-014 -3.97569e-016 -2.18663e-015 6.02715e-013 1.79701e-013 -8.26944e-014 6.91097e-012 -1.81963e-013 -3.02153e-013 1.63054e-011 1.45631e-015 -8.39666e-013 2.81722e-011 6.36111e-015 -1.45669e-012 1.63043e-011 3.97569e-016 -8.30125e-013 -7.73091 5.47488 -0.417314 1.6307e-011 2.98177e-016 -8.55569e-013 -2.90554 0.965183 -0.102902 1.63061e-011 9.93923e-016 -8.45232e-013 -10.2786 0.731801 -0.0259123 1.63156e-011 4.77083e-015 -8.55569e-013 -2.22167 -0.733487 0.20892 -2.03217e-016 0 -3.88251e-019 -0.0338197 -2.13127 -0.0183759 -0.00890405 -1.69209 -0.0751029 -0.522971 3.82304 0.138323 2.03217e-016 0 3.88251e-019 -1.08333 -4.91191 0.0910211 0.00129058 3.34456 -0.00266329 0.531134 1.56716 -0.0928334 
40.8942 82.7718 -106.941 2.1209 -0.197173 -20.5797 -0.944869 -1.37954 0.608201 0.715647 0.477699 0.117494 -0.425168 -0.864818 1.64662 0.102418 1.18622 3.28845 -0 0 0 -0 0 0 5.15259e-015 -6.73421e-014 7.18075e-014 22.0382 2.7075 0.591699 -3.94395 -1.74046 6.21484 0.00100831 -0.709152 -0.0996379 7.72721e-011 -1.67279e-010 3.03196e-010 1.33243e-010 -2.894e-010 5.24385e-010 7.72735e-011 -1.67279e-010 3.03194e-010 7.73091 5.47488 0.417314 7.72703e-011 -1.67279e-010 3.03197e-010 2.90554 0.965183 0.102902 7.72751e-011 -1.6728e-010 3.03202e-010 10.2786 0.731801 0.0259123 7.72667e-011 -1.67277e-010 3.03211e-010 2.22167 -0.733487 -0.20892 4.93023e-015 -6.73413e-014 7.14755e-014 -22.7309 7.34049 -1.15651 3.72526 -1.60497 -5.91018 -0.0285295 3.74891 -0.522811 1.72725e-010 2.89115e-010 1.22488e-010 3.00971e-010 4.99067e-010 2.10357e-010 1.72724e-010 2.89114e-010 1.22496e-010 -7.73091 5.47488 -0.417314 1.72726e-010 2.89114e-010 1.22476e-010 -2.90554 0.965183 -0.102902 1.72725e-010 2.89115e-010 1.22484e-010 -10.2786 0.731801 -0.0259123 1.72732e-010 2.89118e-010 1.22476e-010 -2.22167 -0.733487 0.20892 -2.03217e-016 0 -3.88251e-019 -0.571007 -6.08934 0.214732 0.0356602 8.48308 0.115072 -0.991689 -3.05569 -3.01461 2.03217e-016 0 3.88251e-019 -0.052211 -7.73965 0.914487 -0.00642128 10.5806 -0.113673 0.609351 -3.19478 0.811738 
40.8867 82.7615 -107.012 3.64068 -0.33341 -42.3247 -1.14091 -2.83551 1.27385 1.68668 0.987848 0.278823 -0.819369 -1.79108 3.39086 0.0721803 2.44954 6.77355 -0 0 0 -0 0 0 8.86062e-015 -1.35361e-013 1.43016e-013 45.2739 5.56792 1.21878 -7.70652 -3.51293 12.805 -0.000625222 -1.4683 -0.206352 1.87475e-010 -2.83187e-010 6.1814e-010 3.23522e-010 -4.89792e-010 1.06898e-009 1.87476e-010 -2.83187e-010 6.18141e-010 7.73091 5.47488 0.417314 1.87474e-010 -2.83186e-010 6.18145e-010 2.90554 0.965183 0.102902 1.87481e-010 -2.83187e-010 6.18145e-010 10.2786 0.731801 0.0259123 1.87469e-010 -2.83185e-010 6.18152e-010 2.22167 -0.733487 -0.20892 8.71688e-015 -1.35361e-013 1.42752e-013 -46.4275 15.0992 -2.44553 7.30355 -3.24348 -12.1699 0.0162876 7.70223 -1.08176 3.95025e-010 5.7131e-010 2.54806e-010 6.87799e-010 9.85644e-010 4.36939e-010 3.95024e-010 5.71309e-010 2.54813e-010 -7.73091 5.47488 -0.417314 3.95026e-010 5.71308e-010 2.54799e-010 -2.90554 0.965183 -0.102902 3.95025e-010 5.71309e-010 2.54804e-010 -10.2786 0.731801 -0.0259123 3.95029e-010 5.71313e-010 2.54798e-010 -2.22167 -0.733487 0.20892 -2.03217e-016 0 -3.88251e-019 -1.11084 -10.2737 0.461452 0.00606737 19.2403 0.331995 -2.31843 -10.2749 -6.43755 2.03217e-016 0 3.88251e-019 1.12133 -10.7259 1.79995 0.0174432 18.229 -0.239037 0.857367 -8.22457 1.7861 
40.9056 82.7607 -106.991 4.91207 -0.298618 -61.7204 -1.27367 -4.12927 1.87032 2.54456 1.44304 0.422834 -1.12646 -2.58588 4.94435 -0.0996471 3.51178 9.88196 -0 0 0 -0 0 0 1.17828e-014 -2.0202e-013 2.15124e-013 65.9454 8.119 1.79107 -10.7177 -4.97615 18.709 -0.0043787 -2.12743 -0.299097 1.99158e-010 -5.0184e-010 9.11294e-010 3.43357e-010 -8.68208e-010 1.57609e-009 1.99158e-010 -5.01839e-010 9.11299e-010 7.73091 5.47488 0.417314 1.99158e-010 -5.01838e-010 9.11302e-010 2.90554 0.965183 0.102902 1.99165e-010 -5.0184e-010 9.113e-010 10.2786 0.731801 0.0259123 1.99151e-010 -5.01839e-010 9.11305e-010 2.22167 -0.733487 -0.20892 1.17068e-014 -2.0202e-013 2.14923e-013 -67.245 21.9841 -3.71129 10.1973 -4.61037 -17.783 0.123049 11.2429 -1.59571 4.85564e-010 8.67342e-010 3.69143e-010 8.46569e-010 1.49719e-009 6.33985e-010 4.85563e-010 8.67342e-010 3.69149e-010 -7.73091 5.47488 -0.417314 4.85565e-010 8.6734e-010 3.69141e-010 -2.90554 0.965183 -0.102902 4.85563e-010 8.67342e-010 3.69142e-010 -10.2786 0.731801 -0.0259123 4.85565e-010 8.67345e-010 3.69139e-010 -2.22167 -0.733487 0.20892 -2.03217e-016 0 -3.88251e-019 -1.54615 -14.0046 0.698038 -0.0993376 28.8323 0.561143 -4.26497 -16.5979 -9.71549 2.03217e-016 0 3.88251e-019 2.26023 -13.3847 2.60798 0.0700542 25.0524 -0.364165 1.22563 -12.7061 2.68277 
